#!OML:ASF H:\MichaelJackson\Top Level 1\Subject 1\Session 1\male.ASF
:FULLY-SPECIFIED
:DEGREES
40
root 4.66132 16.7966 -26.198 9.33394 -2.36161 1.16636
lowerback -6.96749 -0.490809 -3.12082
upperback -0.501486 -0.456585 1.29657
thorax 3.42521 -0.282996 3.05317
lowerneck -7.96184 -0.958796 -2.90301
upperneck 0.0750467 -1.06151 2.10234
head 1.40487 -0.491547 1.11685
rclavicle 1.22253e-014 1.27222e-014
rhumerus -37.9845 3.7361 -90.167
rradius 35.9011
rwrist 14.0205
rhand -26.5942 -22.2161
rfingers 7.12502
rthumb -0.0281146 -52.1958
lclavicle 1.22253e-014 1.27222e-014
lhumerus -40.466 -1.58279 94.3866
lradius 39.013
lwrist 8.14757
lhand -13.7117 5.57324
lfingers 7.12502
lthumb 12.4071 35.185
rfemur -21.3965 1.12004 19.8341
rtibia 36.9844
rfoot -24.9758 -14.0503
rtoes 23.2852
lfemur -20.4455 3.21378 -22.9783
ltibia 35.1436
lfoot -23.7691 8.62718
ltoes 13.2355
41
root 4.65797 16.7932 -26.193 9.34476 -2.35863 1.16487
lowerback -6.91328 -0.498682 -3.12167
upperback -0.506451 -0.468536 1.29423
thorax 3.39058 -0.288244 3.05014
lowerneck -7.93856 -0.951531 -2.92421
upperneck -0.0228674 -1.05003 2.11888
head 1.3693 -0.485356 1.12579
rclavicle 1.03617e-014 -4.77083e-015
rhumerus -38.0103 3.71576 -90.19
rradius 35.8998
rwrist 14.016
rhand -26.5755 -22.2086
rfingers 7.12502
rthumb -0.0101233 -52.1884
lclavicle 1.03617e-014 -4.77083e-015
lhumerus -40.458 -1.55285 94.3534
lradius 39.0249
lwrist 8.14955
lhand -13.7102 5.55182
lfingers 7.12502
lthumb 12.4085 35.1635
rfemur -21.4079 1.03152 19.8469
rtibia 37.0412
rfoot -25.0923 -13.8606
rtoes 23.5914
lfemur -20.5879 3.56352 -22.9865
ltibia 35.3757
lfoot -23.7968 8.37348
ltoes 12.8172
42
root 4.65472 16.7895 -26.1886 9.36496 -2.35046 1.14346
lowerback -6.85885 -0.503807 -3.09731
upperback -0.5123 -0.478911 1.29564
thorax 3.3546 -0.292329 3.03694
lowerneck -7.91556 -0.946291 -2.94738
upperneck -0.125909 -1.04104 2.13719
head 1.33227 -0.48036 1.13552
rclavicle -9.46712e-015 -2.10712e-014
rhumerus -38.0325 3.69554 -90.2138
rradius 35.9016
rwrist 14.006
rhand -26.5578 -22.2029
rfingers 7.12502
rthumb 0.00696588 -52.1827
lclavicle -9.46712e-015 -2.10712e-014
lhumerus -40.4414 -1.52685 94.3182
lradius 39.0384
lwrist 8.15486
lhand -13.7044 5.52564
lfingers 7.12502
lthumb 12.4141 35.137
rfemur -21.4331 0.926344 19.8828
rtibia 37.0987
rfoot -25.2169 -13.6398
rtoes 24.0263
lfemur -20.7847 3.92914 -22.9759
ltibia 35.6725
lfoot -23.8105 8.10894
ltoes 12.3572
43
root 4.65154 16.7855 -26.1847 9.38749 -2.3374 1.11272
lowerback -6.79591 -0.507213 -3.05997
upperback -0.518134 -0.488257 1.29889
thorax 3.31369 -0.295652 3.01847
lowerneck -7.89694 -0.943831 -2.97356
upperneck -0.228872 -1.03535 2.15599
head 1.29622 -0.476986 1.14582
rclavicle 1.83876e-015 3.57812e-015
rhumerus -38.056 3.67823 -90.2377
rradius 35.9105
rwrist 13.9912
rhand -26.5392 -22.1974
rfingers 7.12502
rthumb 0.0249515 -52.1772
lclavicle 1.83876e-015 3.57812e-015
lhumerus -40.4184 -1.50176 94.2809
lradius 39.0555
lwrist 8.16148
lhand -13.6926 5.50974
lfingers 7.12502
lthumb 12.4255 35.1204
rfemur -21.4653 0.804455 19.9302
rtibia 37.1569
rfoot -25.3056 -13.4321
rtoes 24.3441
lfemur -21.0279 4.28731 -22.9539
ltibia 36.0414
lfoot -23.8177 7.83685
ltoes 11.952
44
root 4.64871 16.7811 -26.1814 9.41665 -2.32764 1.06476
lowerback -6.72975 -0.504608 -2.99792
upperback -0.524628 -0.491558 1.30419
thorax 3.26963 -0.295582 2.98877
lowerneck -7.87967 -0.944506 -2.99929
upperneck -0.33393 -1.03378 2.17302
head 1.25986 -0.475682 1.15531
rclavicle 9.64106e-015 2.78299e-015
rhumerus -38.0831 3.66747 -90.2636
rradius 35.9311
rwrist 13.9651
rhand -26.5219 -22.1965
rfingers 7.12502
rthumb 0.0417222 -52.1762
lclavicle 9.64106e-015 2.78299e-015
lhumerus -40.3892 -1.48185 94.2419
lradius 39.0783
lwrist 8.16917
lhand -13.6776 5.50459
lfingers 7.12502
lthumb 12.4399 35.1144
rfemur -21.5103 0.660141 19.9962
rtibia 37.2132
rfoot -25.3746 -13.2046
rtoes 24.673
lfemur -21.3282 4.66727 -22.9187
ltibia 36.4896
lfoot -23.8149 7.56314
ltoes 11.5186
45
root 4.64613 16.7763 -26.1785 9.4476 -2.31823 1.00275
lowerback -6.65409 -0.498375 -2.9154
upperback -0.531976 -0.491757 1.31113
thorax 3.21897 -0.293598 2.94956
lowerneck -7.8634 -0.947978 -3.02584
upperneck -0.438698 -1.03582 2.18954
head 1.22391 -0.476181 1.16466
rclavicle 3.37934e-015 1.07344e-014
rhumerus -38.1115 3.66512 -90.2932
rradius 35.957
rwrist 13.9325
rhand -26.5169 -22.2054
rfingers 7.12502
rthumb 0.0464729 -52.1851
lclavicle 3.37934e-015 1.07344e-014
lhumerus -40.3576 -1.46695 94.2009
lradius 39.1105
lwrist 8.18264
lhand -13.6583 5.50046
lfingers 7.12502
lthumb 12.4586 35.1091
rfemur -21.5605 0.495892 20.0782
rtibia 37.2648
rfoot -25.3897 -13.0081
rtoes 24.7646
lfemur -21.6785 5.0595 -22.8719
ltibia 37.0197
lfoot -23.8068 7.28639
ltoes 11.078
46
root 4.6438 16.7715 -26.1761 9.47967 -2.31101 0.926199
lowerback -6.56428 -0.488141 -2.81123
upperback -0.542305 -0.488474 1.3195
thorax 3.15687 -0.289411 2.89996
lowerneck -7.85337 -0.953595 -3.05197
upperneck -0.53673 -1.04057 2.20287
head 1.19128 -0.478075 1.17288
rclavicle 5.7896e-015 -5.96354e-015
rhumerus -38.1454 3.67862 -90.3291
rradius 35.9914
rwrist 13.8879
rhand -26.5155 -22.2182
rfingers 7.12502
rthumb 0.0478444 -52.198
lclavicle 5.7896e-015 -5.96354e-015
lhumerus -40.3282 -1.45447 94.1567
lradius 39.1538
lwrist 8.19951
lhand -13.6399 5.50208
lfingers 7.12502
lthumb 12.4763 35.1097
rfemur -21.6116 0.314623 20.1762
rtibia 37.3072
rfoot -25.3748 -12.82
rtoes 24.7308
lfemur -22.0769 5.46549 -22.8117
ltibia 37.6357
lfoot -23.7926 6.98752
ltoes 10.7034
47
root 4.64156 16.7669 -26.1738 9.5074 -2.29921 0.833209
lowerback -6.46187 -0.475325 -2.68709
upperback -0.551088 -0.483345 1.33102
thorax 3.08907 -0.284059 2.84259
lowerneck -7.84939 -0.962744 -3.07442
upperneck -0.628832 -1.05011 2.20994
head 1.16166 -0.482459 1.17832
rclavicle -7.95139e-016 3.97569e-015
rhumerus -38.1847 3.71203 -90.3699
rradius 36.0372
rwrist 13.8291
rhand -26.5152 -22.2353
rfingers 7.12502
rthumb 0.0481792 -52.2151
lclavicle -7.95139e-016 3.97569e-015
lhumerus -40.2981 -1.44692 94.1116
lradius 39.2101
lwrist 8.22031
lhand -13.6179 5.49915
lfingers 7.12502
lthumb 12.4975 35.1054
rfemur -21.6525 0.119521 20.2942
rtibia 37.3355
rfoot -25.331 -12.6553
rtoes 24.5421
lfemur -22.5187 5.90856 -22.7378
ltibia 38.336
lfoot -23.7624 6.66376
ltoes 10.2418
48
root 4.63939 16.7623 -26.1717 9.52773 -2.28414 0.723941
lowerback -6.34759 -0.460139 -2.54524
upperback -0.554965 -0.476378 1.34701
thorax 3.0195 -0.277713 2.78003
lowerneck -7.84749 -0.974322 -3.09688
upperneck -0.723961 -1.06272 2.21236
head 1.13149 -0.488429 1.18219
rclavicle 8.32411e-015 1.03368e-014
rhumerus -38.2194 3.76357 -90.4143
rradius 36.0895
rwrist 13.7574
rhand -26.5158 -22.2562
rfingers 7.12502
rthumb 0.047591 -52.236
lclavicle 8.32411e-015 1.03368e-014
lhumerus -40.2636 -1.44136 94.0662
lradius 39.2787
lwrist 8.24213
lhand -13.6012 5.49073
lfingers 7.12502
lthumb 12.5136 35.096
rfemur -21.6765 -0.0901978 20.4321
rtibia 37.345
rfoot -25.2621 -12.5125
rtoes 24.1876
lfemur -22.9955 6.34543 -22.6441
ltibia 39.1221
lfoot -23.7136 6.32554
ltoes 9.76639
49
root 4.63721 16.7583 -26.1697 9.53738 -2.26363 0.613268
lowerback -6.21697 -0.444603 -2.40101
upperback -0.554832 -0.469026 1.36319
thorax 2.94492 -0.271217 2.7164
lowerneck -7.842 -0.987447 -3.12178
upperneck -0.826802 -1.0772 2.21462
head 1.09834 -0.495322 1.18634
rclavicle 5.61567e-015 -8.74653e-015
rhumerus -38.2532 3.83401 -90.4621
rradius 36.1476
rwrist 13.6714
rhand -26.5228 -22.273
rfingers 7.12502
rthumb 0.0407855 -52.2527
lclavicle 5.61567e-015 -8.74653e-015
lhumerus -40.2256 -1.43664 94.0199
lradius 39.3582
lwrist 8.26601
lhand -13.5892 5.47834
lfingers 7.12502
lthumb 12.5252 35.0829
rfemur -21.6773 -0.316537 20.5738
rtibia 37.3343
rfoot -25.1843 -12.3765
rtoes 23.7487
lfemur -23.5078 6.80593 -22.5494
ltibia 39.9926
lfoot -23.6255 5.95305
ltoes 9.19698
50
root 4.63502 16.755 -26.1677 9.53941 -2.23546 0.496182
lowerback -6.07728 -0.428911 -2.25294
upperback -0.547288 -0.461521 1.38264
thorax 2.87293 -0.264838 2.65404
lowerneck -7.84232 -1.00285 -3.14499
upperneck -0.934192 -1.09457 2.21133
head 1.06477 -0.503696 1.18834
rclavicle -3.77691e-015 -8.34896e-015
rhumerus -38.2786 3.9224 -90.5105
rradius 36.2115
rwrist 13.5705
rhand -26.5167 -22.291
rfingers 7.12502
rthumb 0.0466983 -52.2707
lclavicle -3.77691e-015 -8.34896e-015
lhumerus -40.1747 -1.4293 93.9737
lradius 39.443
lwrist 8.28759
lhand -13.5942 5.45028
lfingers 7.12502
lthumb 12.5204 35.0552
rfemur -21.6585 -0.558382 20.7248
rtibia 37.3055
rfoot -25.1117 -12.2314
rtoes 23.3171
lfemur -24.0593 7.25914 -22.4426
ltibia 40.9502
lfoot -23.4889 5.54591
ltoes 8.6034
